<?xml version="1.0" encoding="UTF-8" standalone="no"?>
<svg
   xmlns:dc="http://purl.org/dc/elements/1.1/"
   xmlns:cc="http://creativecommons.org/ns#"
   xmlns:rdf="http://www.w3.org/1999/02/22-rdf-syntax-ns#"
   xmlns:svg="http://www.w3.org/2000/svg"
   xmlns="http://www.w3.org/2000/svg"
   xmlns:sodipodi="http://sodipodi.sourceforge.net/DTD/sodipodi-0.dtd"
   xmlns:inkscape="http://www.inkscape.org/namespaces/inkscape"
   version="1.1"
   id="Layer_1"
   x="0px"
   y="0px"
   width="100px"
   height="100px"
   viewBox="5.0 -10.0 100.0 135.0"
   enable-background="new 0 0 100 100"
   xml:space="preserve"
   inkscape:version="0.48.5 r10040"
   sodipodi:docname="pin.svg"><metadata
   id="metadata13"><rdf:RDF><cc:Work
       rdf:about=""><dc:format>image/svg+xml</dc:format><dc:type
         rdf:resource="http://purl.org/dc/dcmitype/StillImage" /></cc:Work></rdf:RDF></metadata><defs
   id="defs11" /><sodipodi:namedview
   pagecolor="#ffffff"
   bordercolor="#666666"
   borderopacity="1"
   objecttolerance="10"
   gridtolerance="10"
   guidetolerance="10"
   inkscape:pageopacity="0"
   inkscape:pageshadow="2"
   inkscape:window-width="1366"
   inkscape:window-height="705"
   id="namedview9"
   showgrid="false"
   inkscape:zoom="3.337544"
   inkscape:cx="42.734633"
   inkscape:cy="57.094663"
   inkscape:window-x="-8"
   inkscape:window-y="-8"
   inkscape:window-maximized="1"
   inkscape:current-layer="Layer_1" />
<path
   d="m 54.853869,-1.6173906 c 27.21105,0 49.252211,22.0464826 49.252211,49.2575326 0,20.594446 -12.661433,38.213016 -30.599132,45.571595 L 55.135766,116.27411 36.982655,93.501612 C 18.651364,86.33983 5.6016548,68.513826 5.6016548,47.640142 c 0,-27.21105 22.0571202,-49.2575326 49.2522142,-49.2575326 m 0,65.8814846 c 9.616415,0 17.413796,-7.797381 17.413796,-17.413796 0,-9.616415 -7.797381,-17.411136 -17.413796,-17.411136 -9.619074,0 -17.416455,7.797381 -17.416455,17.413796 0,9.616415 7.797381,17.411136 17.416455,17.411136 m 0,-68.405262 c -28.548732,0 -51.7786507,23.2246 -51.7786507,51.783969 0,21.216748 12.6773927,39.978863 32.3463657,47.949105 l 17.732924,22.256574 1.978599,2.47325 1.967961,-2.47325 17.972271,-22.562406 c 19.192939,-8.151082 31.559181,-26.788205 31.559181,-47.645932 0,-28.55671 -23.232578,-51.78131 -51.778651,-51.78131 l 0,0 z m 0,65.878825 c -8.214908,0 -14.903316,-6.680429 -14.903316,-14.887359 0,-8.206929 6.688408,-14.895337 14.903316,-14.895337 8.212248,0 14.903316,6.688408 14.903316,14.895337 0,8.20693 -6.691068,14.887359 -14.903316,14.887359 l 0,0 z"
   id="path3"
   inkscape:connector-curvature="0"
   style="fill:#ffffff" />
</svg>